<svg width="127" height="127" viewBox="0 0 127 127" fill="none" xmlns="http://www.w3.org/2000/svg">
<g clip-path="url(#clip0_1_2)">
<ellipse cx="63.0535" cy="63.085" rx="63.0535" ry="63.085" fill="#1064B0"/>
<path d="M110.752 102.39C112.285 101.299 113.352 100.611 114.142 100.146C113.629 100.852 113.103 101.546 112.563 102.227C111.742 102.74 110.94 103.283 110.158 103.854C109.204 104.554 108.769 104.869 107.444 105.898C106.172 106.903 102.3 109.962 98.018 114.054C97.733 114.329 97.354 114.697 97.071 114.975C95.82 116.223 94.96 117.145 94.327 117.875C91.4455 119.518 88.4396 120.932 85.337 122.105C87.654 119.155 90.2226 116.411 93.014 113.905L95.571 114.105C100.527 109.378 105.774 104.964 111.28 100.89L110.752 102.39ZM121.708 86.375C121.425 87.0897 121.131 87.797 120.824 88.497C118.022 89.937 115.366 91.645 112.894 93.597C111.13 94.8985 109.388 96.2296 107.669 97.59C105.233 99.535 97.82 105.446 89.532 113.29C88.975 113.822 88.232 114.532 87.68 115.068C82.768 119.899 80.537 122.5 79.541 123.982C76.6579 124.764 73.7228 125.339 70.758 125.704C72.009 123.704 75.301 119.767 83.938 111.629L86.77 112.565C95.159 104.654 103.978 97.2107 113.186 90.27L113.069 91.947C117.901 88.429 120.357 86.952 121.708 86.375ZM125.56 72.006C125.46 72.737 125.32 73.468 125.188 74.2C123.588 74.886 120.258 76.778 112.968 82.292C110.494 84.1653 108.047 86.0745 105.628 88.019C102.223 90.772 91.861 99.15 80.143 110.09C79.35 110.837 78.294 111.832 77.506 112.584C69.269 120.53 66.106 124.241 64.906 126.14C61.9926 126.224 59.0769 126.106 56.18 125.785C57.743 123.413 62.037 118.405 74.199 107.12L77.191 108.698C89.218 97.576 101.098 87.49 112.498 78.74L112.761 80.522C119.361 75.569 123.289 72.947 125.56 72.006ZM44.619 123.415C43.753 123.147 42.8928 122.86 42.039 122.555C43.993 119.967 49.228 114.29 64.152 100.679L67.204 102.82C81.664 89.64 95.864 77.51 109.404 66.766L110.015 68.58C118.374 62.071 123.222 58.636 125.93 57.318C125.998 58.061 126.065 58.805 126.107 59.553C124.167 60.416 120.02 63.024 110.58 70.401C107.499 72.824 105.952 74.04 101.58 77.601C97.419 81.028 84.745 91.452 70.24 104.79C69.252 105.705 67.94 106.923 66.954 107.841C57.989 116.3 52.531 121.929 50.434 124.89C48.4737 124.49 46.5332 123.997 44.619 123.415ZM36.66 120.37C33.9753 119.136 31.3809 117.715 28.896 116.117C31.277 113.471 37.341 107.459 54.081 92.48L57.11 95.133C73.28 80.633 89.072 67.033 104.049 54.721L105 56.53C115.782 47.79 120.611 44.244 122.872 42.89C123.115 43.608 123.352 44.327 123.572 45.054C121.472 46.235 116.872 49.443 105.903 58.342C102.498 61.1037 99.1128 63.8908 95.749 66.703C91.049 70.648 76.729 82.652 60.158 97.632C59.024 98.662 57.511 100.032 56.379 101.07C45.805 110.79 39.298 117.161 36.66 120.37ZM24.08 112.69C21.6781 110.802 19.417 108.742 17.315 106.525C20.052 104.01 26.647 98.101 44.252 82.668L47.181 85.798C63.5212 71.4016 79.9653 57.1235 96.512 42.965L97.789 44.71C109.142 35.09 114.128 31.027 116.396 29.311C116.81 29.967 117.217 30.626 117.607 31.296C115.493 32.826 110.733 36.58 99.017 46.468C95.4179 49.5047 91.8289 52.5534 88.25 55.614C83.216 59.927 67.895 73.049 50.152 88.79C48.923 89.884 47.284 91.34 46.057 92.434C34.471 102.79 27.222 109.471 24.08 112.69ZM14.313 27.052C11.999 28.832 10.087 30.2217 8.577 31.221C10.6415 27.6806 13.0483 24.3513 15.763 21.281C16.011 21.087 16.244 20.909 16.505 20.702L16.137 23.144C21.5911 18.7922 26.7679 14.1037 31.637 9.106L33.216 8.872C34.216 7.814 34.956 6.982 35.588 6.25C36.3986 5.85891 37.2175 5.48515 38.044 5.129C37.275 6.057 36.251 7.21 34.816 8.704C33.504 10.055 32.906 10.672 30.985 12.539C26.1857 17.1538 21.1841 21.5534 15.995 25.725C15.495 26.125 14.82 26.656 14.313 27.052ZM14.493 37.133C10.6373 40.2731 6.59054 43.171 2.376 45.81C2.49 45.41 2.589 45.005 2.712 44.603C3.51023 42.0109 4.4732 39.4724 5.595 37.003C9.26761 34.6538 12.7901 32.0778 16.142 29.29L16.495 32.142C25.5634 24.8319 34.2216 17.0271 42.43 8.763L44.118 8.951C46.6125 6.47906 48.9463 3.85003 51.105 1.08C51.867 0.932002 52.63 0.789998 53.399 0.670998C51.0845 3.69627 48.5503 6.54698 45.817 9.2C43.83 11.2 42.832 12.205 39.87 15.042C37.025 17.731 28.372 25.912 17.052 35.09C16.286 35.704 15.266 36.523 14.497 37.133M16.963 48.033C8.8 54.56 3.225 58.642 0 60.475C0.127991 57.4828 0.469522 54.5035 1.022 51.56C3.71 50.08 8.653 46.715 18.065 39.069L19.052 42.19C31.899 31.62 43.572 21.16 53.744 11.099L55.477 11.669C61.144 5.996 64.477 2.346 66.108 0C66.853 0.036 67.601 0.0929982 68.348 0.155998C67.003 2.114 63.962 5.639 57.209 12.293C54.602 14.844 53.294 16.125 49.447 19.741C45.783 23.15 34.634 33.526 20.219 45.376C19.242 46.176 17.94 47.235 16.96 48.027M21.507 59.37C11.437 67.625 4.7 72.797 1.101 75.037C0.533657 72.1289 0.173424 69.1841 0.0230026 66.225C3.023 64.51 9.1 60.279 22.007 49.625L23.566 52.916C38.821 40.179 52.825 27.716 65.188 15.869L66.904 16.789C75.43 8.563 79.12 4.536 80.692 2.465C80.97 2.545 81.249 2.612 81.527 2.697C81.961 2.83 82.382 2.984 82.811 3.125C81.254 5.188 77.541 9.225 68.611 17.759C65.403 20.798 63.938 22.186 59.392 26.37C48.2441 36.5754 36.8723 46.5335 25.285 56.237C24.152 57.178 22.641 58.437 21.505 59.373M27.977 70.803C16.667 80.334 9.261 86.347 5.551 89.003C4.32109 86.2795 3.28517 83.4725 2.451 80.603C5.575 78.589 12.307 73.603 27.769 60.603L29.849 63.961C46.752 49.613 62.401 35.79 76.369 22.867L78.018 24.112C88.062 14.807 92.459 10.421 94.352 8.235C95.009 8.609 95.665 8.985 96.306 9.381C94.533 11.39 90.312 15.614 79.652 25.405C76.289 28.479 74.437 30.172 69.397 34.705C64.675 38.93 50.31 51.79 32.08 67.322C30.85 68.366 29.211 69.758 27.98 70.8M36.303 82.047C22.809 93.758 16.318 99.35 13.333 101.89C11.445 99.4678 9.73581 96.9114 8.219 94.241C11.27 91.922 18.219 86.303 35.219 71.714L37.791 75.059C56.015 59.306 72.1 45.215 86.966 31.981L88.496 33.537C99.614 23.685 104.431 19.314 106.552 17.299C107.122 17.8373 107.683 18.386 108.233 18.945C106.283 20.745 101.742 24.817 90.011 35.145C86.411 38.309 82.811 41.4693 79.211 44.626C74.558 48.699 60.403 61.097 40.512 78.39L36.303 82.047Z" fill="white"/>
</g>
<defs>
<clipPath id="clip0_1_2">
<rect width="127" height="127" fill="white"/>
</clipPath>
</defs>
</svg>
